<?xml version="1.0" encoding="iso-8859-1"?>
<!-- Generator: Adobe Illustrator 16.0.0, SVG Export Plug-In . SVG Version: 6.00 Build 0)  -->
<!DOCTYPE svg PUBLIC "-//W3C//DTD SVG 1.1//EN" "http://www.w3.org/Graphics/SVG/1.1/DTD/svg11.dtd">
<svg version="1.1" id="Capa_1" xmlns="http://www.w3.org/2000/svg" xmlns:xlink="http://www.w3.org/1999/xlink" x="0px" y="0px"
	 width="45.566px" height="45.565px" viewBox="0 0 45.566 45.565" style="enable-background:new 0 0 45.566 45.565;"
	 xml:space="preserve">
<g>
	<g>
		<path d="M17.527,0.018c-3.993,0.336-5.995,3.863-6.166,7.585c-0.149,3.253,2.144,7.703,5.942,7.384
			c3.994-0.335,5.996-3.861,6.167-7.585c0.001-0.018-0.004-0.031-0.009-0.046c-0.009-0.023-0.011-0.059-0.004-0.077
			c0.004-0.012,0.008-0.023,0.007-0.035C23.318,4.045,21.43-0.31,17.527,0.018z M13.682,4.804c0.521-1.733,1.571-3.339,3.187-3.494
			c0.55-0.053,0.674,0.395,0.283,0.785c-1,0.992-1.999,1.984-2.998,2.977C13.763,5.459,13.523,5.332,13.682,4.804z M21.425,8.645
			c-0.139,0.958-0.418,2.069-0.888,3.009c-0.247,0.493-0.679,0.67-0.852,0.429c-0.173-0.24-0.613-0.135-1.006,0.252
			c-0.219,0.216-0.438,0.432-0.657,0.647c-0.394,0.387-0.938,0.671-1.208,0.596c-0.154-0.043-0.312-0.099-0.477-0.17
			c-0.21-0.091-0.403-0.202-0.583-0.33c-0.303-0.215-0.19-0.742,0.207-1.125c0.371-0.357,0.741-0.714,1.111-1.074
			c0.248-0.251,0.497-0.5,0.745-0.75c0.39-0.391,0.668-0.871,0.63-1.072C18.41,8.854,18.072,9.007,17.684,9.4
			c-0.702,0.709-1.404,1.419-2.106,2.129c-0.388,0.393-0.988,0.362-1.252-0.122c-0.012-0.022-0.023-0.044-0.035-0.066
			c-0.259-0.488-0.088-1.232,0.299-1.626c1.048-1.065,2.091-2.122,3.131-3.175c0.388-0.393,0.772-1.155,0.927-1.685
			c0.002-0.009,0.005-0.018,0.007-0.026c0.157-0.529,0.021-0.626-0.373-0.239c-1.305,1.278-2.639,2.584-4.021,3.933
			c-0.395,0.386-0.773,0.45-0.832,0.143c-0.036-0.19-0.067-0.377-0.093-0.559c-0.013-0.095-0.023-0.196-0.03-0.3
			c-0.011-0.167,0.308-0.615,0.703-1c1.406-1.368,2.842-2.767,4.308-4.194c0.396-0.385,1.101-0.457,1.475-0.05
			c0.979,1.067,1.448,2.643,1.639,4.092C21.505,7.202,21.504,8.099,21.425,8.645z M14.273,8.593
			c2.487-2.462,4.475-4.387,3.225-3.102c-0.427,0.412-1.581,1.526-3.217,3.11C13.885,8.984,13.881,8.98,14.273,8.593z"/>
		<path d="M28.247,15.199c3.489,0.233,6.481-1.78,7.939-4.894c1.19-3.253,0.497-8.348-3.829-8.638
			c-3.489-0.234-6.48,1.779-7.938,4.893C22.924,9.754,24.135,14.924,28.247,15.199z M33.304,3.599
			c0.13,0.116,0.258,0.243,0.384,0.385c1.596,1.801,1.357,4.614,0.6,6.684c-0.348,0.742-0.803,1.432-1.33,2.01
			c-0.372,0.407-0.778,0.632-0.844,0.565c-0.064-0.066-0.347,0.095-0.63,0.368c-0.284,0.273-0.932,0.678-1.482,0.72
			c-0.438,0.034-0.886-0.023-1.331-0.189c-0.519-0.192-0.565-0.794-0.18-1.189c0.551-0.565,1.101-1.128,1.646-1.688
			c0.386-0.396,0.669-0.864,0.646-1.048c-0.023-0.184-0.354-0.019-0.751,0.366c-0.453,0.439-1.1,1.063-2.035,1.963
			c-0.398,0.383-0.804,0.617-0.901,0.521c-0.059-0.058-0.116-0.117-0.173-0.182c-0.348-0.392-0.605-0.833-0.79-1.303
			c-0.202-0.514,0.044-1.274,0.437-1.662c1.025-1.012,2.05-2.024,3.076-3.034c0.869-0.961,1.722-1.92,2.573-2.879
			C32.581,3.594,33.08,3.397,33.304,3.599z M26.859,6.022c0.476-0.471,0.854-0.841,1.122-1.094c1.396-1.403,0.481-0.448-1.203,1.294
			c-0.384,0.396-0.682,0.671-0.662,0.612C26.136,6.776,26.467,6.413,26.859,6.022z M26.749,6.339
			c1.047-1.075,2.033-2.091,2.967-3.051c0.385-0.396,0.991-0.755,1.354-0.725c0.362,0.029,0.334,0.438-0.051,0.833
			c-1.523,1.561-3.045,3.123-4.566,4.685c-0.385,0.396-0.673,0.32-0.59-0.161C25.944,7.438,26.364,6.734,26.749,6.339z"/>
		<path d="M37.642,13.237c-4.088,0.612-5.951,3.471-5.894,7.508c0.061,4.23,3.396,6.585,7.436,5.77
			c3.774-0.764,5.076-3.053,5.174-6.792C44.305,15.673,41.99,12.584,37.642,13.237z M33.905,17.651
			c0.478-1.918,1.652-3.552,3.622-3.656c0.397-0.021,0.562,0.189,0.481,0.451c-1.202,1.176-2.391,2.338-3.569,3.489
			C34.042,18.321,33.771,18.187,33.905,17.651z M37.977,14.518c-0.038,0.08-0.088,0.163-0.173,0.245
			c-1.136,1.102-2.263,2.199-3.383,3.293c-0.396,0.386-0.397,0.384-0.006-0.004C35.949,16.536,37.327,15.173,37.977,14.518z
			 M40.612,25.343c-0.466,0.296-0.738,0.213-0.518-0.009c0.219-0.222,0.313-0.475,0.218-0.569c-0.096-0.097-0.438,0.105-0.767,0.456
			c-0.33,0.35-1.041,0.683-1.585,0.627c-0.543-0.058-0.659-0.537-0.282-0.941c0.306-0.328,0.609-0.654,0.914-0.98
			c0.377-0.404,0.565-0.998,0.458-1.34c-0.107-0.342-0.485-0.311-0.877,0.078c-0.544,0.541-1.092,1.083-1.639,1.627
			c-0.392,0.391-1.069,0.435-1.421,0.007c-0.749-0.911-1.204-2.133-1.387-3.437c-0.041-0.291-0.063-0.591-0.07-0.898
			c-0.011-0.497,0.35-1.21,0.748-1.592c1.52-1.449,2.958-2.827,4.298-4.114c0.022-0.021,0.046-0.044,0.069-0.067
			c0.039-0.037,0.263-0.021,0.495,0.057c0.136,0.045,0.273,0.097,0.416,0.154c0.075,0.03,0.144,0.068,0.209,0.108
			c0.112,0.066-0.12,0.434-0.518,0.818c-1.458,1.414-2.915,2.827-4.375,4.233c-0.396,0.384-0.386,0.397,0.027,0.03
			c1.442-1.28,2.953-2.616,4.469-3.955c0.414-0.365,0.788-0.7,0.838-0.742c0.052-0.041,0.464,0.184,0.807,0.616
			c1.009,1.276,1.263,3.186,1.283,4.73C42.375,22.117,42.181,24.345,40.612,25.343z"/>
		<path d="M8.846,24.944c3.795-0.729,5.296-4.653,5.05-8.115c-0.63-3.864-3.435-7.145-7.613-6.343
			c-3.794,0.729-5.296,4.652-5.05,8.114C1.513,22.53,4.911,25.698,8.846,24.944z M3.711,14.071c0.481-1.129,1.247-2.079,2.308-2.461
			c0.52-0.187,0.658,0.134,0.261,0.518c-0.796,0.773-1.613,1.565-2.462,2.386C3.626,14.587,3.557,14.433,3.711,14.071z M6.33,12.139
			c-0.699,0.692-1.446,1.421-2.227,2.179c-0.068,0.066-0.121,0.096-0.176,0.133c0.479-0.458,1.351-1.304,2.396-2.322
			C6.718,11.744,6.722,11.749,6.33,12.139z M6.346,23.567c-0.318-0.169-0.237-0.674,0.147-1.07c0.493-0.51,0.983-1.016,1.468-1.516
			c0.385-0.395,0.544-1.11,0.417-1.613c-0.127-0.503-0.5-0.607-0.893-0.219c-0.708,0.699-1.42,1.403-2.134,2.108
			c-0.393,0.389-0.967,0.334-1.217-0.159c-0.082-0.16-0.158-0.323-0.229-0.488c-0.22-0.507-0.022-1.24,0.382-1.616
			c1.121-1.043,2.236-2.091,3.346-3.146c0.4-0.381,0.78-0.914,0.867-1.185c0.088-0.27-0.138-0.165-0.526,0.227
			c-1.265,1.277-2.531,2.554-3.795,3.832c-0.388,0.393-0.793,0.414-0.879,0.041c-0.054-0.233-0.099-0.461-0.134-0.68
			C3.14,17.926,3.121,17.76,3.11,17.588c-0.019-0.275,0.296-0.82,0.682-1.216c1.305-1.34,2.603-2.666,3.897-3.985
			c0.387-0.394,1.127-0.556,1.573-0.229c1.575,1.153,2.418,3.433,2.705,5.19c0.157,2.215-0.503,5.783-2.927,6.518
			c-0.529,0.16-0.669-0.181-0.276-0.567c0.107-0.104,0.213-0.21,0.319-0.314c0.393-0.388,0.573-0.875,0.418-1.1
			c-0.155-0.226-0.578-0.098-0.962,0.299c-0.298,0.309-0.597,0.616-0.896,0.924C7.258,23.501,6.665,23.737,6.346,23.567z"/>
		<path d="M36.52,28.947c-2.685-2.088-5.39-4.179-7.135-7.149c-1.081-1.84-2.438-2.863-4.422-3.572
			c-2.22-0.793-4.682-0.17-6.695,0.85c-1.681,0.852-2.402,2.474-3.19,4.071c-1.52,3.082-5.508,5.165-8.143,7.244
			c-3.642,2.873-3.403,8.022-1.514,11.814c1.857,3.724,6.721,3.666,10.225,3.028c3.191-0.582,5.983-1.653,9.295-0.942
			c2.517,0.541,4.777,1.107,7.382,1.255c0.034,0.002,0.07-0.01,0.104-0.012c0.05,0.002,0.086,0.017,0.143,0.013
			c3.757-0.172,6.36-1.596,7.701-5.221C42.035,35.558,40.274,31.867,36.52,28.947z M18.468,21.167c0.1-0.105,0.202-0.209,0.305-0.31
			c0.397-0.384,0.443-0.332,0.052,0.058c-0.102,0.101-0.203,0.201-0.304,0.302C18.13,21.605,18.088,21.569,18.468,21.167z
			 M7.605,32.021c0.425-0.52,0.91-1.01,1.431-1.478c0.411-0.369,0.651-0.54,0.516-0.405C9.47,30.22,9.388,30.302,9.308,30.38
			c-0.534,0.574-1.072,1.146-1.61,1.719C7.32,32.501,7.256,32.448,7.605,32.021z M34.608,43.861
			c-0.522,0.18-1.176,0.199-1.434,0.133c-0.259-0.065-0.534-0.058-0.619,0.024c-0.084,0.082-0.601,0.114-1.149,0.058
			c-0.217-0.022-0.433-0.048-0.646-0.074c-0.548-0.065-0.867-0.259-0.713-0.415c0.153-0.154,0.173-0.299,0.044-0.314
			c-0.131-0.019-0.357,0.096-0.509,0.251c-0.149,0.154-0.715,0.212-1.26,0.124c-3.56-0.572-6.822-1.193-10.792-0.117
			c-0.725,0.196-1.421,0.345-2.089,0.445c-0.546,0.082-0.969,0.094-0.941,0.064c0.028-0.028,0.04-0.06,0.025-0.065
			c-0.015-0.007-0.058,0.02-0.098,0.059c-0.039,0.039-0.44,0.104-0.896,0.104c-0.455,0.001-0.639-0.215-0.41-0.441
			c0.228-0.229,0.173-0.62-0.085-0.913c-0.258-0.294-0.764-0.256-1.17,0.118c-0.075,0.07-0.151,0.14-0.227,0.21
			c-0.406,0.374-1.168,0.556-1.667,0.317c-0.356-0.172-0.692-0.374-1.007-0.609c-0.442-0.33-0.434-0.981-0.046-1.375
			c0.562-0.572,1.126-1.146,1.693-1.721c0.388-0.395,0.67-0.852,0.635-1.023c-0.036-0.172-0.391-0.009-0.798,0.363
			c-0.665,0.607-1.332,1.214-1.999,1.818c-0.409,0.371-0.943,0.408-1.155,0.06c-0.212-0.35-0.018-0.95,0.393-1.319
			c0.849-0.763,1.697-1.524,2.542-2.291c0.41-0.37,0.734-0.778,0.733-0.912c-0.002-0.084-0.001-0.165,0.002-0.24
			c0.007-0.21,0.024-0.421,0.049-0.631c0.041-0.348-0.232-0.32-0.636,0.057c-1.044,0.973-2.087,1.945-3.13,2.92
			c-0.404,0.377-0.873,0.271-1.003-0.247c-0.076-0.304-0.143-0.619-0.2-0.95c-0.086-0.506-0.108-0.983-0.078-1.441
			c0.036-0.552,0.474-1.296,0.876-1.675c1.016-0.955,2.039-1.916,3.083-2.893c1.657-1.715,3.312-3.425,4.961-5.109
			c2.028-2.095,4.032-4.159,6.014-6.195c0.385-0.396,0.744-0.727,0.802-0.74c0.035-0.009,0.069-0.017,0.106-0.021
			c3.031-0.418,5.023,2.056,6.384,4.37c1.521,2.589,4.515,4.604,6.828,6.403c1.953,1.52,3.246,2.885,3.88,5.341
			C39.801,38.856,37.998,42.695,34.608,43.861z"/>
		<path d="M15.257,29.154c-0.39,0.392-0.378,0.403,0.026,0.027c2.022-1.883,4.069-3.792,6.11-5.699
			c0.404-0.377,0.817-0.84,0.911-1.038c0.057-0.121,0.109-0.242,0.156-0.364c0.017-0.045,0.037-0.087,0.057-0.129
			c0.034-0.069-0.256,0.189-0.647,0.58C20.186,24.213,18.035,26.366,15.257,29.154z"/>
	</g>
</g>
<g>
</g>
<g>
</g>
<g>
</g>
<g>
</g>
<g>
</g>
<g>
</g>
<g>
</g>
<g>
</g>
<g>
</g>
<g>
</g>
<g>
</g>
<g>
</g>
<g>
</g>
<g>
</g>
<g>
</g>
</svg>
