<?xml version="1.0" encoding="UTF-8" standalone="no"?>
<!-- Generator: Adobe Illustrator 16.0.0, SVG Export Plug-In . SVG Version: 6.00 Build 0)  -->

<svg
   xmlns:dc="http://purl.org/dc/elements/1.1/"
   xmlns:cc="http://creativecommons.org/ns#"
   xmlns:rdf="http://www.w3.org/1999/02/22-rdf-syntax-ns#"
   xmlns:svg="http://www.w3.org/2000/svg"
   xmlns="http://www.w3.org/2000/svg"
   xmlns:sodipodi="http://sodipodi.sourceforge.net/DTD/sodipodi-0.dtd"
   xmlns:inkscape="http://www.inkscape.org/namespaces/inkscape"
   version="1.1"
   id="Capa_1"
   x="0px"
   y="0px"
   width="62.911266mm"
   height="25.329992mm"
   viewBox="0 0 237.77486 95.735405"
   xml:space="preserve"
   sodipodi:docname="logo.svg"
   inkscape:version="0.92.4 (5da689c313, 2019-01-14)"><metadata
   id="metadata949"><rdf:RDF><cc:Work
       rdf:about=""><dc:format>image/svg+xml</dc:format><dc:type
         rdf:resource="http://purl.org/dc/dcmitype/StillImage" /><dc:title /></cc:Work></rdf:RDF></metadata><defs
   id="defs947" /><sodipodi:namedview
   pagecolor="#ffffff"
   bordercolor="#666666"
   borderopacity="1"
   objecttolerance="10"
   gridtolerance="10"
   guidetolerance="10"
   inkscape:pageopacity="0"
   inkscape:pageshadow="2"
   inkscape:window-width="1920"
   inkscape:window-height="993"
   id="namedview945"
   showgrid="false"
   units="mm"
   fit-margin-top="0"
   fit-margin-left="0"
   fit-margin-right="0"
   fit-margin-bottom="0"
   inkscape:zoom="0.57115382"
   inkscape:cx="-142.84165"
   inkscape:cy="15.08346"
   inkscape:window-x="0"
   inkscape:window-y="26"
   inkscape:window-maximized="1"
   inkscape:current-layer="Capa_1" />

<g
   id="g914"
   transform="translate(-283.1363,577.82856)">
</g>
<g
   id="g916"
   transform="translate(-283.1363,577.82856)">
</g>
<g
   id="g918"
   transform="translate(-283.1363,577.82856)">
</g>
<g
   id="g920"
   transform="translate(-283.1363,577.82856)">
</g>
<g
   id="g922"
   transform="translate(-283.1363,577.82856)">
</g>
<g
   id="g924"
   transform="translate(-283.1363,577.82856)">
</g>
<g
   id="g926"
   transform="translate(-283.1363,577.82856)">
</g>
<g
   id="g928"
   transform="translate(-283.1363,577.82856)">
</g>
<g
   id="g930"
   transform="translate(-283.1363,577.82856)">
</g>
<g
   id="g932"
   transform="translate(-283.1363,577.82856)">
</g>
<g
   id="g934"
   transform="translate(-283.1363,577.82856)">
</g>
<g
   id="g936"
   transform="translate(-283.1363,577.82856)">
</g>
<g
   id="g938"
   transform="translate(-283.1363,577.82856)">
</g>
<g
   id="g940"
   transform="translate(-283.1363,577.82856)">
</g>
<g
   id="g942"
   transform="translate(-283.1363,577.82856)">
</g>
<g
   id="g977"
   transform="scale(0.43002987)"
   style="fill:#ff5555"><g
     transform="matrix(7.1131881,0,0,7.1131881,-7.4973003,-0.01066978)"
     id="g912"
     style="fill:#ff5555">
	<path
   inkscape:connector-curvature="0"
   id="path910"
   d="m 23.56,3.619 c -0.199,-0.135 -0.47,-0.104 -0.633,0.076 -0.162,0.179 -0.169,0.451 -0.016,0.639 1.488,1.803 2.309,4.087 2.309,6.431 0,1.459 -0.07,3.107 -0.919,4.213 -1.386,1.805 -2.836,2.183 -3.81,2.183 -1.229,0 -2.162,-0.585 -2.586,-1.085 -2.892,-3.404 2.36,-9.302 2.414,-9.36 C 20.44,6.58 20.477,6.388 20.413,6.218 L 19.911,4.88 C 19.851,4.725 19.72,4.609 19.557,4.574 19.396,4.541 19.227,4.59 19.111,4.706 L 17.48,6.337 18.416,2.912 C 18.462,2.744 18.414,2.563 18.291,2.439 L 15.996,0.144 c -0.19,-0.19 -0.499,-0.19 -0.689,0 L 13.012,2.439 C 12.888,2.563 12.84,2.743 12.887,2.912 l 0.934,3.426 -1.63,-1.631 C 12.074,4.591 11.906,4.541 11.744,4.575 11.581,4.61 11.449,4.724 11.39,4.881 l -0.503,1.338 c -0.064,0.17 -0.027,0.361 0.095,0.498 0.053,0.06 5.305,5.956 2.415,9.36 -0.425,0.5 -1.357,1.085 -2.586,1.085 -0.974,0 -2.424,-0.378 -3.81,-2.183 -0.849,-1.105 -0.92,-2.754 -0.92,-4.213 0,-2.344 0.82,-4.628 2.308,-6.431 C 8.543,4.147 8.536,3.874 8.374,3.696 8.211,3.516 7.94,3.484 7.74,3.619 3.553,6.442 1.054,11.137 1.054,16.18 c 0,8.179 6.404,14.82 14.578,15.119 0.006,0 0.012,0 0.018,0 0.006,0 0.012,0 0.018,0 8.174,-0.299 14.577,-6.94 14.577,-15.119 0,-5.043 -2.5,-9.738 -6.685,-12.561 z"
   style="fill:#ff5555" />
</g><g
     transform="translate(-125.56054,-530.3582)"
     id="g1002"
     style="fill:#ff5555"><path
       inkscape:connector-curvature="0"
       id="path965"
       style="font-style:normal;font-variant:normal;font-weight:normal;font-stretch:normal;font-size:86.09725189px;line-height:1.25;font-family:Comfortaa;-inkscape-font-specification:'Comfortaa, Normal';font-variant-ligatures:normal;font-variant-caps:normal;font-variant-numeric:normal;font-feature-settings:normal;text-align:center;letter-spacing:0px;word-spacing:0px;writing-mode:lr-tb;text-anchor:middle;fill:#ff5555;fill-opacity:1;stroke:none;stroke-width:2.15243125"
       d="m 390.99744,630.31506 q 0.77487,1.29146 0.77487,2.32463 0,1.29146 -0.94707,2.06633 -0.94706,0.77488 -2.49682,0.77488 -1.03316,0 -1.72194,-0.43049 -0.68878,-0.43049 -1.20536,-1.29146 l -15.49751,-24.62381 h -1.46365 -12.74239 v 22.98796 q 0,1.46366 -0.94707,2.41073 -0.94707,0.94707 -2.41073,0.94707 -1.46365,0 -2.41072,-0.94707 -0.94707,-0.94707 -0.94707,-2.41073 v -60.52636 q 0,-1.46366 0.94707,-2.41073 0.94707,-0.94707 2.41072,-0.94707 h 16.10019 q 6.2851,0 11.19264,2.66902 4.90755,2.58291 7.66266,7.31826 2.84121,4.73535 2.84121,10.76216 0,6.62949 -3.61609,11.62313 -3.52999,4.99364 -9.64289,7.14607 z m -22.55748,-27.63722 q 4.30486,0 7.74875,-1.72194 3.52999,-1.80804 5.42413,-4.90755 1.98024,-3.0995 1.98024,-7.05997 0,-4.13267 -1.98024,-7.40436 -1.89414,-3.2717 -5.33803,-5.07974 -3.44389,-1.80804 -7.83485,-1.80804 h -12.74239 v 27.9816 z" /><path
       inkscape:connector-curvature="0"
       id="path967"
       style="font-style:normal;font-variant:normal;font-weight:normal;font-stretch:normal;font-size:86.09725189px;line-height:1.25;font-family:Comfortaa;-inkscape-font-specification:'Comfortaa, Normal';font-variant-ligatures:normal;font-variant-caps:normal;font-variant-numeric:normal;font-feature-settings:normal;text-align:center;letter-spacing:0px;word-spacing:0px;writing-mode:lr-tb;text-anchor:middle;fill:#ff5555;fill-opacity:1;stroke:none;stroke-width:2.15243125"
       d="m 405.47792,635.4809 q -1.37755,0 -2.41072,-0.94707 -0.94707,-1.03317 -0.94707,-2.41073 v -60.52636 q 0,-1.46366 0.94707,-2.41073 1.03317,-0.94707 2.41072,-0.94707 h 40.37961 q 1.46366,0 2.41073,0.94707 0.94707,0.94707 0.94707,2.32463 0,1.37755 -0.94707,2.32462 -0.94707,0.86098 -2.41073,0.86098 h -37.02181 v 23.76284 h 26.94844 q 1.46365,0 2.41072,0.94707 0.94707,0.94707 0.94707,2.32462 0,1.37756 -1.03317,2.32463 -0.94707,0.94707 -2.32462,0.94707 h -26.94844 v 24.02113 h 37.02181 q 1.46366,0 2.41073,0.94707 0.94707,0.86097 0.94707,2.23853 0,1.37756 -0.94707,2.32463 -0.94707,0.94707 -2.41073,0.94707 z" /><path
       inkscape:connector-curvature="0"
       id="path969"
       style="font-style:normal;font-variant:normal;font-weight:normal;font-stretch:normal;font-size:86.09725189px;line-height:1.25;font-family:Comfortaa;-inkscape-font-specification:'Comfortaa, Normal';font-variant-ligatures:normal;font-variant-caps:normal;font-variant-numeric:normal;font-feature-settings:normal;text-align:center;letter-spacing:0px;word-spacing:0px;writing-mode:lr-tb;text-anchor:middle;fill:#ff5555;fill-opacity:1;stroke:none;stroke-width:2.15243125"
       d="m 465.43659,635.4809 q -1.72195,0 -2.75511,-0.86098 -1.03317,-0.94707 -1.03317,-2.49682 v -60.52636 q 0,-1.46366 0.94707,-2.41073 0.94707,-0.94707 2.41072,-0.94707 h 20.92163 q 5.16584,0 9.29851,2.23853 4.21876,2.15243 6.62949,6.02681 2.49682,3.87437 2.49682,8.69582 0,4.56316 -2.49682,8.17924 -2.41073,3.61608 -6.5434,5.59632 5.94071,1.63585 9.3846,5.94071 3.44389,4.21877 3.44389,10.67606 0,5.76852 -2.66901,10.33167 -2.66901,4.47706 -7.40436,7.05998 -4.64926,2.49682 -10.67606,2.49682 z m 20.49114,-39.17425 q 5.25194,0 8.52363,-2.92731 3.35779,-3.0134 3.35779,-8.17924 0,-4.99364 -3.27169,-7.74875 -3.2717,-2.75511 -8.60973,-2.75511 h -17.56384 v 21.61041 z m 1.46366,32.71695 q 6.2851,0 10.15947,-3.61608 3.96048,-3.70218 3.96048,-9.81509 0,-5.85461 -3.96048,-9.2985 -3.87437,-3.52999 -10.15947,-3.52999 h -19.0275 v 26.25966 z" /><path
       inkscape:connector-curvature="0"
       id="path971"
       style="font-style:normal;font-variant:normal;font-weight:normal;font-stretch:normal;font-size:86.09725189px;line-height:1.25;font-family:Comfortaa;-inkscape-font-specification:'Comfortaa, Normal';font-variant-ligatures:normal;font-variant-caps:normal;font-variant-numeric:normal;font-feature-settings:normal;text-align:center;letter-spacing:0px;word-spacing:0px;writing-mode:lr-tb;text-anchor:middle;fill:#ff5555;fill-opacity:1;stroke:none;stroke-width:2.15243125"
       d="m 524.8706,635.4809 q -1.37756,0 -2.41073,-0.94707 -0.94707,-1.03317 -0.94707,-2.41073 v -60.52636 q 0,-1.46366 0.94707,-2.41073 1.03317,-0.94707 2.41073,-0.94707 h 40.37961 q 1.46365,0 2.41072,0.94707 0.94707,0.94707 0.94707,2.32463 0,1.37755 -0.94707,2.32462 -0.94707,0.86098 -2.41072,0.86098 h -37.02182 v 23.76284 h 26.94844 q 1.46365,0 2.41072,0.94707 0.94707,0.94707 0.94707,2.32462 0,1.37756 -1.03317,2.32463 -0.94707,0.94707 -2.32462,0.94707 h -26.94844 v 24.02113 h 37.02182 q 1.46365,0 2.41072,0.94707 0.94707,0.86097 0.94707,2.23853 0,1.37756 -0.94707,2.32463 -0.94707,0.94707 -2.41072,0.94707 z" /><path
       inkscape:connector-curvature="0"
       id="path973"
       style="font-style:normal;font-variant:normal;font-weight:normal;font-stretch:normal;font-size:86.09725189px;line-height:1.25;font-family:Comfortaa;-inkscape-font-specification:'Comfortaa, Normal';font-variant-ligatures:normal;font-variant-caps:normal;font-variant-numeric:normal;font-feature-settings:normal;text-align:center;letter-spacing:0px;word-spacing:0px;writing-mode:lr-tb;text-anchor:middle;fill:#ff5555;fill-opacity:1;stroke:none;stroke-width:2.15243125"
       d="m 584.39878,635.4809 q -1.37756,0 -2.41072,-0.94707 -0.94707,-1.03317 -0.94707,-2.41073 v -60.52636 q 0,-1.37756 0.94707,-2.32463 1.03316,-1.03317 2.41072,-1.03317 1.46365,0 2.41072,0.94707 0.94707,0.94707 0.94707,2.41073 v 57.51296 h 33.66403 q 1.46365,0 2.41072,0.94707 0.94707,0.86097 0.94707,2.23853 0,1.37755 -0.94707,2.32462 -0.94707,0.86098 -2.41072,0.86098 z" /><path
       inkscape:connector-curvature="0"
       id="path975"
       style="font-style:normal;font-variant:normal;font-weight:normal;font-stretch:normal;font-size:86.09725189px;line-height:1.25;font-family:Comfortaa;-inkscape-font-specification:'Comfortaa, Normal';font-variant-ligatures:normal;font-variant-caps:normal;font-variant-numeric:normal;font-feature-settings:normal;text-align:center;letter-spacing:0px;word-spacing:0px;writing-mode:lr-tb;text-anchor:middle;fill:#ff5555;fill-opacity:1;stroke:none;stroke-width:2.15243125"
       d="m 656.18774,636.34187 q -8.17924,0 -14.55044,-3.44389 -6.28509,-3.52999 -9.04021,-9.4707 -0.34439,-0.60268 -0.34439,-1.37756 0,-1.20536 0.86098,-1.98023 0.94707,-0.86097 2.49682,-0.86097 1.03316,0 1.89414,0.60268 0.94707,0.51658 1.37755,1.54975 1.98024,3.87437 6.54339,6.2851 4.64926,2.32462 10.76216,2.32462 7.05997,0 11.36484,-3.35779 4.30486,-3.44389 4.30486,-9.5568 0,-5.42412 -4.04657,-9.1263 -3.96047,-3.70219 -11.96752,-4.73535 -9.98728,-1.20536 -15.7558,-6.19901 -5.68241,-5.07973 -5.68241,-12.398 0,-5.16583 2.75511,-9.04021 2.84121,-3.96047 7.74875,-6.02681 4.99364,-2.15243 11.27874,-2.15243 6.80168,0 11.96752,3.0134 5.16583,3.01341 8.09314,7.83485 0.60268,0.94707 0.60268,2.06634 0,1.63585 -1.54975,2.58292 -0.68878,0.34438 -1.54975,0.34438 -0.94707,0 -1.80804,-0.43048 -0.77488,-0.51659 -1.29146,-1.37756 -4.82145,-7.57656 -14.55044,-7.66265 -6.97387,0 -11.02045,2.9273 -4.04657,2.92731 -4.04657,8.35144 0,10.07337 16.27238,12.22581 10.67606,1.54975 15.928,6.54339 5.25193,4.99364 5.25193,13.17288 0,6.0268 -2.92731,10.41776 -2.9273,4.39096 -8.00704,6.71559 -5.07974,2.23853 -11.36484,2.23853 z" /><path
       inkscape:connector-curvature="0"
       id="path977"
       style="font-style:normal;font-variant:normal;font-weight:normal;font-stretch:normal;font-size:86.09725189px;line-height:1.25;font-family:Comfortaa;-inkscape-font-specification:'Comfortaa, Normal';font-variant-ligatures:normal;font-variant-caps:normal;font-variant-numeric:normal;font-feature-settings:normal;text-align:center;letter-spacing:0px;word-spacing:0px;writing-mode:lr-tb;text-anchor:middle;fill:#ff5555;fill-opacity:1;stroke:none;stroke-width:2.15243125"
       d="m 449.07205,715.96343 q -9.12631,0 -16.78896,-4.64925 -7.66266,-4.64925 -12.22581,-12.5702 -4.47706,-7.92094 -4.47706,-17.30554 0,-9.29851 4.47706,-17.21946 4.47706,-7.92094 12.13971,-12.57019 7.66266,-4.64926 16.87506,-4.64926 6.19901,0 11.27874,1.80805 5.07974,1.80804 9.81509,5.76851 0.94707,0.68878 0.94707,1.98024 0,0.68878 -0.34439,1.29146 -0.34439,0.51658 -0.94707,0.77487 -0.17219,0.60268 -0.77487,0.94707 -0.60268,0.34439 -1.29146,0.34439 -1.29146,0 -2.15243,-0.77487 -3.3578,-3.01341 -7.31827,-4.39096 -3.96047,-1.37756 -9.21241,-1.37756 -7.23217,0 -13.43117,3.87438 -6.199,3.78828 -9.90118,10.24557 -3.61609,6.45729 -3.61609,13.94776 0,7.66265 3.61609,14.11994 3.61608,6.4573 9.81509,10.24558 6.199,3.78828 13.51726,3.78828 9.3846,0 16.96116,-6.02681 0.94707,-0.68878 1.89414,-0.68878 1.29146,0 2.23853,0.94707 0.94707,0.86097 0.94707,2.32463 0,1.37755 -0.94707,2.41072 -8.09314,7.40436 -21.09383,7.40436 z" /><path
       inkscape:connector-curvature="0"
       id="path979"
       style="font-style:normal;font-variant:normal;font-weight:normal;font-stretch:normal;font-size:86.09725189px;line-height:1.25;font-family:Comfortaa;-inkscape-font-specification:'Comfortaa, Normal';font-variant-ligatures:normal;font-variant-caps:normal;font-variant-numeric:normal;font-feature-settings:normal;text-align:center;letter-spacing:0px;word-spacing:0px;writing-mode:lr-tb;text-anchor:middle;fill:#ff5555;fill-opacity:1;stroke:none;stroke-width:2.15243125"
       d="m 488.63239,715.10246 q -1.46365,0 -2.41072,-0.94707 -0.94707,-0.94707 -0.94707,-2.41072 V 651.2183 q 0,-1.46365 0.94707,-2.41072 0.94707,-0.94707 2.41072,-0.94707 1.54976,0 2.58292,1.20536 l 41.15449,54.06907 V 651.2183 q 0,-1.46365 0.94707,-2.41072 1.03317,-0.94707 2.41072,-0.94707 1.46365,0 2.41072,0.94707 0.94707,0.94707 0.94707,2.41072 v 60.52637 q 0,1.37755 -0.94707,2.41072 -0.94707,0.94707 -2.41072,0.94707 -1.72194,0 -2.49682,-1.11926 l -41.24058,-54.06908 v 51.83055 q 0,1.37755 -0.94707,2.41072 -0.94707,0.94707 -2.41073,0.94707 z" /><path
       inkscape:connector-curvature="0"
       id="path981"
       style="font-style:normal;font-variant:normal;font-weight:normal;font-stretch:normal;font-size:86.09725189px;line-height:1.25;font-family:Comfortaa;-inkscape-font-specification:'Comfortaa, Normal';font-variant-ligatures:normal;font-variant-caps:normal;font-variant-numeric:normal;font-feature-settings:normal;text-align:center;letter-spacing:0px;word-spacing:0px;writing-mode:lr-tb;text-anchor:middle;fill:#ff5555;fill-opacity:1;stroke:none;stroke-width:2.15243125"
       d="m 586.4577,715.96343 q -9.1263,0 -16.78896,-4.64925 -7.66266,-4.64925 -12.22581,-12.5702 -4.47706,-7.92094 -4.47706,-17.30554 0,-9.29851 4.47706,-17.21946 4.47706,-7.92094 12.13971,-12.57019 7.66266,-4.64926 16.87506,-4.64926 6.19901,0 11.27874,1.80805 5.07974,1.80804 9.81509,5.76851 0.94707,0.68878 0.94707,1.98024 0,0.68878 -0.34439,1.29146 -0.34439,0.51658 -0.94707,0.77487 -0.17219,0.60268 -0.77487,0.94707 -0.60268,0.34439 -1.29146,0.34439 -1.29146,0 -2.15243,-0.77487 -3.3578,-3.01341 -7.31827,-4.39096 -3.96047,-1.37756 -9.21241,-1.37756 -7.23216,0 -13.43117,3.87438 -6.199,3.78828 -9.90118,10.24557 -3.61609,6.45729 -3.61609,13.94776 0,7.66265 3.61609,14.11994 3.61608,6.4573 9.81509,10.24558 6.199,3.78828 13.51726,3.78828 9.3846,0 16.96116,-6.02681 0.94707,-0.68878 1.89414,-0.68878 1.29146,0 2.23853,0.94707 0.94707,0.86097 0.94707,2.32463 0,1.37755 -0.94707,2.41072 -8.09314,7.40436 -21.09383,7.40436 z" /></g></g></svg>